<?xml version="1.0" standalone="no"?>
<!DOCTYPE svg PUBLIC "-//W3C//DTD SVG 20010904//EN"
 "http://www.w3.org/TR/2001/REC-SVG-20010904/DTD/svg10.dtd">
<svg version="1.0" xmlns="http://www.w3.org/2000/svg"
 width="503.000000pt" height="760.000000pt" viewBox="0 0 503.000000 760.000000"
 preserveAspectRatio="xMidYMid meet">

<g transform="translate(0.000000,760.000000) scale(0.100000,-0.100000)"
fill="#000000" stroke="none">
<path d="M1107 6825 c-48 -17 -82 -48 -110 -100 l-22 -40 0 -2875 0 -2875 22
-41 c28 -53 83 -100 130 -113 25 -7 309 -11 831 -11 l794 0 29 29 c24 25 29
38 29 79 0 61 6 52 -234 334 -44 51 -123 143 -176 203 -99 112 -444 512 -575
665 -40 47 -121 140 -179 208 -122 142 -136 165 -136 226 0 39 7 54 52 113 28
37 72 91 97 119 25 27 81 91 123 141 153 181 236 176 405 -22 47 -55 627 -747
776 -925 34 -41 190 -228 345 -415 156 -187 305 -365 330 -395 26 -30 59 -71
75 -92 15 -21 60 -72 99 -114 114 -120 199 -154 390 -154 140 0 204 19 260 77
64 67 82 116 83 218 0 137 11 120 -466 706 -101 124 -205 252 -230 285 -26 32
-86 109 -135 169 -441 545 -652 816 -716 914 -105 164 -157 359 -165 618 -8
241 25 433 101 598 62 134 68 142 692 895 229 276 351 426 452 551 33 41 155
189 271 329 237 285 288 367 298 477 5 51 2 69 -20 115 -15 34 -39 66 -63 84
l-37 29 -261 0 c-306 0 -274 12 -409 -144 -173 -200 -753 -875 -783 -911 -16
-21 -55 -67 -86 -101 -30 -35 -244 -284 -476 -554 -231 -269 -436 -500 -454
-512 -48 -32 -132 -32 -179 0 -35 23 -209 225 -310 360 -55 73 -59 83 -59 132
0 73 -20 47 645 820 198 230 385 448 415 484 30 36 96 115 147 174 89 103 93
110 93 155 -1 50 -12 72 -47 90 -34 19 -1604 16 -1656 -3z"/>
<path d="M3860 4862 l0 -140 53 -12 c66 -16 113 -44 132 -80 24 -46 35 -147
35 -317 0 -89 5 -186 11 -215 18 -86 68 -177 137 -247 l63 -64 -37 -30 c-52
-43 -119 -138 -145 -205 -20 -51 -23 -83 -29 -302 -6 -219 -9 -250 -28 -292
-24 -55 -63 -83 -139 -98 l-53 -11 0 -133 c0 -73 2 -135 4 -137 2 -2 62 -2
133 1 120 5 134 8 195 38 83 41 158 120 189 200 20 52 23 82 30 322 5 186 12
281 23 319 17 60 57 123 95 150 34 24 114 51 151 51 l30 0 0 124 0 124 -42 7
c-24 3 -59 9 -77 12 -50 9 -123 85 -145 151 -24 70 -35 204 -36 402 0 247 -32
341 -145 431 -84 68 -126 81 -277 86 l-128 5 0 -140z"/>
</g>
</svg>
