<?xml version="1.0" standalone="no"?>
<!DOCTYPE svg PUBLIC "-//W3C//DTD SVG 20010904//EN"
 "http://www.w3.org/TR/2001/REC-SVG-20010904/DTD/svg10.dtd">
<svg version="1.0" xmlns="http://www.w3.org/2000/svg"
 width="1536.000000pt" height="1024.000000pt" viewBox="0 0 1536.000000 1024.000000"
 preserveAspectRatio="xMidYMid meet">

<g transform="translate(0.000000,1024.000000) scale(0.100000,-0.100000)"
fill="#000000" stroke="none">
<path d="M3435 7955 c-51 -18 -100 -71 -117 -127 -11 -35 -13 -538 -13 -2698
0 -2496 1 -2658 17 -2711 21 -66 75 -122 135 -138 25 -7 288 -11 781 -11 l744
0 29 29 c37 38 41 103 7 147 -25 32 -77 93 -711 827 -247 285 -459 534 -473
554 -29 43 -31 95 -6 140 34 63 312 372 352 393 76 39 135 22 217 -63 47 -48
994 -1178 1422 -1695 202 -245 250 -286 364 -317 92 -25 285 -18 342 12 50 26
86 65 116 123 35 67 34 184 -2 260 -15 32 -122 173 -253 335 -375 462 -1007
1253 -1094 1367 -168 221 -242 451 -242 748 0 263 74 506 209 683 27 36 227
281 444 544 917 1111 988 1198 1019 1260 62 125 47 255 -38 319 l-37 29 -221
3 c-135 2 -235 -1 -256 -7 -57 -17 23 74 -1349 -1527 -245 -287 -460 -531
-477 -543 -70 -48 -142 -46 -204 6 -39 32 -295 342 -315 380 -20 39 -19 87 4
131 11 20 288 349 615 731 567 661 596 696 596 734 0 29 -7 45 -29 68 l-29 29
-754 0 c-623 -1 -760 -3 -793 -15z"/>
<path d="M6020 6112 l0 -130 48 -12 c74 -17 111 -44 134 -97 18 -41 22 -76 28
-268 6 -191 10 -227 29 -276 28 -74 73 -140 126 -187 l43 -38 -34 -28 c-49
-39 -112 -126 -136 -188 -18 -45 -22 -86 -29 -283 -4 -138 -12 -245 -20 -268
-18 -54 -67 -93 -133 -107 l-56 -11 0 -123 c0 -67 2 -125 4 -127 2 -2 60 -2
128 1 108 5 131 9 180 33 69 34 141 109 176 185 26 55 27 65 33 307 8 269 17
327 64 394 32 48 88 79 156 89 l54 7 3 117 3 116 -53 7 c-70 10 -97 21 -131
53 -72 68 -87 135 -96 432 -8 265 -13 288 -72 376 -37 55 -82 92 -149 123 -47
21 -73 26 -177 29 l-123 4 0 -130z"/>
<path d="M9610 5969 l0 -241 -37 32 c-82 73 -209 95 -320 57 -140 -49 -238
-206 -250 -404 -10 -155 27 -288 104 -373 64 -71 129 -102 224 -108 117 -7
200 28 259 110 l30 41 0 -66 0 -67 100 0 100 0 0 630 0 630 -105 0 -105 0 0
-241z m-117 -355 c46 -23 66 -43 90 -89 19 -34 22 -57 22 -157 0 -113 -1 -117
-30 -159 -42 -59 -87 -84 -155 -84 -75 0 -127 29 -165 90 -29 46 -30 54 -30
159 0 117 14 165 61 208 55 49 146 63 207 32z"/>
<path d="M7190 5550 l0 -600 110 0 110 0 2 278 3 279 214 -279 214 -278 129 0
c101 0 128 3 122 13 -4 6 -108 144 -231 305 l-224 293 33 42 c18 23 119 150
223 282 105 132 194 246 198 253 6 9 -20 12 -120 12 l-128 0 -215 -276 -215
-276 -3 276 -2 276 -110 0 -110 0 0 -600z"/>
<path d="M10238 5825 c-144 -39 -258 -174 -289 -340 -13 -72 -6 -209 16 -281
23 -77 87 -167 148 -207 80 -53 152 -70 269 -65 84 4 106 9 162 37 77 38 137
102 165 175 10 28 18 52 17 52 0 1 -49 4 -108 8 -87 5 -108 4 -108 -7 0 -24
-62 -77 -103 -88 -117 -31 -219 41 -242 174 l-7 37 291 0 291 0 0 63 c0 78
-23 186 -52 246 -30 62 -102 138 -158 166 -84 43 -203 55 -292 30z m170 -179
c52 -27 102 -103 102 -156 0 -19 -6 -20 -175 -20 -96 0 -175 4 -175 9 0 19 31
94 49 120 40 55 138 79 199 47z"/>
<path d="M11132 5829 c-145 -25 -248 -121 -277 -256 l-7 -33 100 0 100 0 12
29 c23 56 64 84 128 89 103 7 152 -38 152 -138 l0 -50 -62 0 c-151 0 -310 -41
-366 -93 -60 -56 -89 -186 -62 -282 16 -56 77 -128 128 -148 121 -48 287 -15
351 70 l20 28 1 -47 0 -48 101 0 100 0 -4 333 c-4 376 -6 385 -77 458 -73 75
-210 111 -338 88z m207 -560 c-5 -39 -16 -84 -26 -101 -47 -81 -200 -105 -250
-39 -20 26 -16 109 7 141 30 43 107 67 221 69 l55 1 -7 -71z"/>
<path d="M8363 5815 c-181 -56 -285 -218 -284 -443 1 -273 157 -442 410 -442
269 0 438 195 418 483 -7 107 -28 172 -80 249 -78 115 -184 168 -334 167 -49
0 -107 -6 -130 -14z m205 -191 c85 -35 132 -122 132 -242 0 -167 -76 -262
-209 -262 -135 0 -210 107 -199 288 7 110 43 173 123 215 39 21 106 21 153 1z"/>
<path d="M10110 4478 l0 -242 -32 32 c-53 51 -121 75 -208 75 -202 0 -341
-160 -357 -409 -17 -271 109 -462 317 -481 91 -9 164 18 229 83 30 30 56 54
58 54 1 0 3 -27 3 -60 l0 -60 95 0 95 0 0 625 0 625 -100 0 -100 0 0 -242z
m-117 -342 c43 -17 93 -76 106 -123 17 -58 14 -207 -4 -251 -33 -77 -89 -114
-174 -115 -94 0 -157 48 -186 145 -41 140 10 301 110 344 39 17 107 17 148 0z"/>
<path d="M10525 4691 c-70 -31 -98 -135 -53 -201 34 -50 93 -70 150 -50 57 20
88 67 88 132 0 41 -5 54 -33 84 -28 31 -41 37 -83 40 -27 2 -58 0 -69 -5z"/>
<path d="M7438 4655 c-100 -27 -189 -102 -232 -194 -17 -37 -21 -65 -21 -146
0 -89 3 -105 27 -151 49 -93 126 -140 331 -200 141 -41 173 -57 205 -105 19
-27 23 -43 19 -78 -9 -84 -69 -131 -178 -139 -60 -4 -75 -1 -124 23 -60 29
-100 76 -111 133 l-6 32 -105 0 -104 0 7 -47 c29 -195 173 -317 389 -330 195
-12 355 66 421 205 38 80 44 196 15 274 -42 110 -129 171 -326 227 -197 57
-248 93 -248 177 0 128 175 188 297 101 16 -11 40 -44 53 -74 l25 -54 101 3
102 3 -3 25 c-18 146 -119 266 -261 310 -73 23 -199 26 -273 5z"/>
<path d="M8200 4440 l0 -119 -77 -3 -78 -3 -3 -82 c-3 -94 -12 -86 93 -87 l50
-1 5 -270 c5 -290 10 -314 61 -362 45 -41 98 -57 189 -56 47 0 97 6 113 12 27
10 27 12 27 102 l0 91 -59 -7 c-63 -7 -113 9 -125 40 -3 9 -6 115 -6 235 l0
218 93 0 92 0 0 84 0 83 -92 3 -93 3 0 119 0 120 -95 0 -95 0 0 -120z"/>
<path d="M11120 4339 c-143 -28 -265 -149 -306 -303 -16 -60 -18 -212 -3 -275
45 -198 221 -325 426 -307 231 19 373 186 373 440 0 193 -71 331 -207 404 -88
46 -185 60 -283 41z m171 -206 c45 -24 58 -37 82 -83 36 -73 44 -156 23 -240
-28 -110 -96 -170 -191 -170 -122 0 -199 98 -199 255 -1 131 48 217 140 250
57 21 84 18 145 -12z"/>
<path d="M8692 4003 c3 -303 4 -321 26 -375 55 -136 187 -204 323 -165 57 17
133 73 144 107 9 29 23 25 17 -5 -2 -14 -1 -41 2 -60 l7 -35 94 0 95 0 0 425
0 425 -104 0 -103 0 -2 -277 c-2 -304 -5 -323 -64 -367 -36 -27 -124 -33 -165
-12 -63 33 -67 50 -70 369 l-3 287 -100 0 -100 0 3 -317z"/>
<path d="M10480 3895 l0 -425 100 0 100 0 0 425 0 425 -100 0 -100 0 0 -425z"/>
</g>
</svg>
